<svg width="32" height="32" viewBox="0 0 32 32" fill="none" xmlns="http://www.w3.org/2000/svg">
<circle cx="16" cy="16" r="16" fill="url(#paint0_linear_4289_31775)"/>
<path d="M17.2991 11.0998C17.0155 10.2293 16.728 9.34687 16.4444 8.47641C16.4364 8.45245 16.4324 8.44047 16.4244 8.41651C16.2807 8.00524 16.1289 7.58998 15.9851 7.1787C15.6656 6.30026 15.1744 5.92495 14.2361 5.86512C14.2241 5.86911 14.2081 5.86113 14.1961 5.86512C13.6531 5.95301 13.1939 6.21259 12.8026 6.59595C12.3874 7.00727 11.9402 7.40261 11.5169 7.80993C10.3111 8.96401 9.11729 10.154 7.88352 11.2841C7.25666 11.8592 7.00115 12.4701 7.37655 13.2767C7.41649 13.3366 7.46041 13.3885 7.50035 13.4284C7.90767 13.8916 8.42678 14.0114 9.05767 13.8875C9.64464 13.7717 10.1917 13.556 10.7507 13.3563C12.9388 12.6135 15.115 11.8546 17.2991 11.0998Z" fill="#DDDDDE"/>
<path fill-rule="evenodd" clip-rule="evenodd" d="M7.27052 13.0273L10.1141 21.637C10.4734 22.7251 11.648 23.3146 12.7352 22.9525L19.6233 20.658C21.4781 20.0401 23.5202 20.4199 25.0289 21.6632C25.3831 21.9551 25.8984 21.6014 25.7533 21.1659L22.6014 11.7036C22.1735 10.4191 20.7811 9.72903 19.4998 10.1665L9.36692 13.6261C8.36442 13.8691 7.91796 13.7403 7.27052 13.0273ZM14.3282 18.2992C14.4263 18.1238 14.4508 17.9166 14.3961 17.7232C14.3415 17.5297 14.2123 17.3659 14.0369 17.2678C13.8615 17.1696 13.6543 17.1452 13.4609 17.1998C13.2675 17.2544 13.1037 17.3836 13.0055 17.559C12.9074 17.7344 12.8829 17.9416 12.9376 18.135C12.9922 18.3284 13.1214 18.4923 13.2968 18.5904C13.4722 18.6885 13.6794 18.713 13.8728 18.6584C14.0662 18.6038 14.23 18.4745 14.3282 18.2992ZM17.2453 17.4754C17.3435 17.3 17.3679 17.0928 17.3133 16.8994C17.2587 16.706 17.1295 16.5422 16.9541 16.444C16.7787 16.3459 16.5715 16.3214 16.3781 16.3761C16.1847 16.4307 16.0209 16.5599 15.9227 16.7353C15.8246 16.9107 15.8001 17.1179 15.8547 17.3113C15.9093 17.5047 16.0386 17.6685 16.2139 17.7667C16.3893 17.8648 16.5965 17.8893 16.79 17.8346C16.9834 17.78 17.1472 17.6508 17.2453 17.4754ZM20.1625 16.6517C20.2606 16.4763 20.2851 16.2691 20.2305 16.0757C20.1759 15.8822 20.0466 15.7184 19.8712 15.6203C19.6959 15.5221 19.4887 15.4977 19.2952 15.5523C19.1018 15.6069 18.938 15.7361 18.8399 15.9115C18.7417 16.0869 18.7173 16.2941 18.7719 16.4875C18.8265 16.681 18.9557 16.8448 19.1311 16.9429C19.3065 17.0411 19.5137 17.0655 19.7071 17.0109C19.9005 16.9563 20.0643 16.8271 20.1625 16.6517Z" fill="white"/>
<defs>
<linearGradient id="paint0_linear_4289_31775" x1="44.48" y1="30.4" x2="8.33642" y2="3.38983" gradientUnits="userSpaceOnUse">
<stop stop-color="#69F7F7"/>
<stop offset="1" stop-color="#5F8AFA"/>
</linearGradient>
</defs>
</svg>
