<svg width="606" height="606" viewBox="0 0 606 606" fill="none" xmlns="http://www.w3.org/2000/svg">
<path fill-rule="evenodd" clip-rule="evenodd" d="M308.414 79.7557C233.583 73.9182 146.978 57.6235 97.0935 113.659C45.6825 171.409 65.2215 258.216 82.4698 333.559C99.7042 408.842 119.851 495.545 191.276 525.061C260.494 553.665 330.114 499.259 395.622 462.967C454.158 430.537 518.711 398.531 536.185 333.976C554.313 267.005 528.359 195.38 482.045 143.688C438.761 95.3783 373.113 84.8028 308.414 79.7557Z" fill="url(#paint0_linear_3957_22232)"/>
<path d="M304.536 216.72C300.376 203.95 296.157 191.004 291.997 178.233C291.88 177.882 291.821 177.706 291.704 177.354C289.595 171.321 287.368 165.229 285.259 159.195C280.571 146.307 273.365 140.801 259.599 139.924C259.423 139.982 259.189 139.865 259.013 139.924C251.046 141.213 244.31 145.021 238.569 150.645C232.477 156.68 225.916 162.48 219.707 168.455C202.017 185.387 184.503 202.845 166.402 219.425C157.206 227.861 153.457 236.824 158.965 248.657C159.55 249.536 160.195 250.297 160.781 250.883C166.757 257.678 174.372 259.435 183.628 257.618C192.239 255.919 200.265 252.755 208.466 249.825C240.567 238.927 272.493 227.794 304.536 216.72Z" fill="#DFDBDF"/>
<path fill-rule="evenodd" clip-rule="evenodd" d="M157.41 244.996L199.127 371.306C204.399 387.269 221.631 395.917 237.58 390.604L338.634 356.943C365.845 347.879 395.805 353.45 417.939 371.69C423.135 375.972 430.695 370.783 428.567 364.395L382.325 225.576C376.048 206.73 355.62 196.607 336.823 203.025L188.166 253.78C173.458 257.345 166.908 255.455 157.41 244.996ZM260.95 322.338C262.39 319.765 262.749 316.725 261.948 313.887C261.146 311.05 259.251 308.647 256.678 307.207C254.104 305.767 251.065 305.408 248.227 306.209C245.39 307.011 242.986 308.906 241.547 311.479C240.107 314.053 239.748 317.092 240.549 319.93C241.35 322.768 243.246 325.171 245.819 326.611C248.392 328.05 251.432 328.409 254.27 327.608C257.107 326.807 259.51 324.911 260.95 322.338ZM303.747 310.253C305.187 307.68 305.546 304.64 304.745 301.802C303.943 298.965 302.048 296.562 299.475 295.122C296.902 293.682 293.862 293.323 291.024 294.124C288.187 294.926 285.783 296.821 284.344 299.394C282.904 301.968 282.545 305.007 283.346 307.845C284.147 310.683 286.043 313.086 288.616 314.526C291.189 315.965 294.229 316.324 297.067 315.523C299.904 314.722 302.307 312.826 303.747 310.253ZM346.544 298.168C347.984 295.595 348.343 292.555 347.542 289.717C346.74 286.88 344.845 284.477 342.272 283.037C339.699 281.597 336.659 281.238 333.821 282.039C330.984 282.841 328.581 284.736 327.141 287.309C325.701 289.883 325.342 292.922 326.143 295.76C326.945 298.598 328.84 301.001 331.413 302.441C333.986 303.88 337.026 304.239 339.864 303.438C342.701 302.637 345.104 300.741 346.544 298.168Z" fill="white"/>
<defs>
<linearGradient id="paint0_linear_3957_22232" x1="114.36" y1="252.927" x2="730.235" y2="356.063" gradientUnits="userSpaceOnUse">
<stop stop-color="#5F8AFA"/>
<stop offset="1" stop-color="#69F7F7"/>
</linearGradient>
</defs>
</svg>
